<svg xmlns="http://www.w3.org/2000/svg" viewBox="0 0 36 36"><g transform="" opacity="1"><g transform="matrix(1 0 0 1 4.211841583251953 2.999999761581421)" opacity="1"><path d="M10.0757 28.65 C8.9757 27.75 8.2882 26.6 8.0132 25.2 C6.6882 25.625 5.3507 25.6 4.0007 25.125 C2.6507 24.65 1.6132 23.825 0.8882 22.65 C0.1382 21.45 -0.1368 20.1188 0.0632 18.6563 C0.2632 17.1938 0.9132 15.975 2.0132 15 C0.9632 14.05 0.3319 12.875 0.1194 11.475 C-0.0931 10.075 0.1382 8.775 0.8132 7.575 C1.4882 6.375 2.5069 5.5063 3.8694 4.9688 C5.2319 4.4313 6.5882 4.375 7.9382 4.8 C8.2132 3.4 8.9007 2.25 10.0007 1.35 C11.1007 0.45 12.3632 0 13.7882 0 C15.2132 0 16.4757 0.45 17.5757 1.35 C18.6757 2.25 19.3632 3.4 19.6382 4.8 C21.0382 4.375 22.3944 4.4125 23.7069 4.9125 C25.0194 5.4125 26.0382 6.3 26.7632 7.575 C27.4382 8.825 27.6819 10.1313 27.4944 11.4938 C27.3069 12.8563 26.6632 14.025 25.5632 15 C26.6632 15.975 27.3194 17.1813 27.5319 18.6188 C27.7444 20.0563 27.5132 21.4 26.8382 22.65 C26.1132 23.925 25.0944 24.775 23.7819 25.2 C22.4694 25.625 21.1132 25.625 19.7132 25.2 C19.4382 26.6 18.7507 27.75 17.6507 28.65 C16.5507 29.55 15.2882 30 13.8632 30 C12.4382 30 11.1757 29.55 10.0757 28.65 Z M13.8632 27 C15.0382 27 15.9194 26.4938 16.5069 25.4813 C17.0944 24.4688 17.0882 23.475 16.4882 22.5 L15.4382 20.775 C15.1632 20.85 14.9007 20.9063 14.6507 20.9438 C14.4007 20.9813 14.1382 21 13.8632 21 C13.6132 21 13.3569 20.9813 13.0944 20.9438 C12.8319 20.9063 12.5632 20.85 12.2882 20.775 L11.2382 22.5 C10.6382 23.475 10.6319 24.4688 11.2194 25.4813 C11.8069 26.4938 12.6882 27 13.8632 27 Z M3.3632 21 C3.9632 22.025 4.8444 22.5375 6.0069 22.5375 C7.1694 22.5375 8.0382 22.025 8.6132 21 L9.5882 19.275 C9.3882 19.075 9.2007 18.8625 9.0257 18.6375 C8.8507 18.4125 8.7007 18.175 8.5757 17.925 C8.4507 17.7 8.3382 17.4688 8.2382 17.2313 C8.1382 16.9938 8.0507 16.75 7.9757 16.5 L5.9882 16.5 C4.8132 16.5 3.9382 16.9938 3.3632 17.9813 C2.7882 18.9688 2.7882 19.975 3.3632 21 Z M18.9632 21 C19.5382 22.025 20.4069 22.5375 21.5694 22.5375 C22.7319 22.5375 23.6132 22.025 24.2132 21 C24.7882 19.975 24.7882 18.9688 24.2132 17.9813 C23.6382 16.9938 22.7632 16.5 21.5882 16.5 L19.6007 16.5 C19.5507 16.75 19.4694 16.9938 19.3569 17.2313 C19.2444 17.4688 19.1257 17.7 19.0007 17.925 C18.8757 18.175 18.7257 18.4125 18.5507 18.6375 C18.3757 18.8625 18.1882 19.075 17.9882 19.275 L18.9632 21 Z M7.9757 13.5 C8.0507 13.225 8.1444 12.9563 8.2569 12.6938 C8.3694 12.4313 8.4882 12.1875 8.6132 11.9625 C8.7382 11.7375 8.8819 11.525 9.0444 11.325 C9.2069 11.125 9.3882 10.925 9.5882 10.725 L8.6132 9 C8.0382 7.975 7.1694 7.4625 6.0069 7.4625 C4.8444 7.4625 3.9632 7.975 3.3632 9 C2.7882 10.025 2.7882 11.0313 3.3632 12.0188 C3.9382 13.0063 4.8132 13.5 5.9882 13.5 L7.9757 13.5 Z M21.5882 13.5 C22.7632 13.5 23.6382 13.0063 24.2132 12.0188 C24.7882 11.0313 24.7882 10.025 24.2132 9 C23.6132 7.975 22.7319 7.4625 21.5694 7.4625 C20.4069 7.4625 19.5382 7.975 18.9632 9 L17.9882 10.725 C18.1882 10.925 18.3694 11.125 18.5319 11.325 C18.6944 11.525 18.8382 11.7375 18.9632 11.9625 C19.0882 12.1875 19.2069 12.4313 19.3194 12.6938 C19.4319 12.9563 19.5257 13.225 19.6007 13.5 L21.5882 13.5 Z M12.1757 9.225 C12.4507 9.15 12.7194 9.0938 12.9819 9.0563 C13.2444 9.0188 13.5132 9 13.7882 9 C14.0632 9 14.3319 9.0188 14.5944 9.0563 C14.8569 9.0938 15.1257 9.15 15.4007 9.225 L16.4132 7.5 C16.9882 6.525 16.9882 5.5313 16.4132 4.5188 C15.8382 3.5063 14.9632 3 13.7882 3 C12.6132 3 11.7382 3.5 11.1632 4.5 C10.5882 5.5 10.5882 6.5 11.1632 7.5 L12.1757 9.225 Z M15.9069 17.1188 C16.4944 16.5313 16.7882 15.825 16.7882 15 C16.7882 14.175 16.4944 13.4688 15.9069 12.8813 C15.3194 12.2938 14.6132 12 13.7882 12 C12.9632 12 12.2569 12.2938 11.6694 12.8813 C11.0819 13.4688 10.7882 14.175 10.7882 15 C10.7882 15.825 11.0819 16.5313 11.6694 17.1188 C12.2569 17.7063 12.9632 18 13.7882 18 C14.6132 18 15.3194 17.7063 15.9069 17.1188 Z" fill="rgba(255,171,75,1)" opacity="1"/></g></g></svg>